:SAMPLES-PER-SECOND 30
:FULLY-SPECIFIED
:DEGREES
300
root  -1.35411 40.9875 0.80162 -177.242 -75.8042 -178.017
RightUpLeg  -5.59749 0.577741 -0.857661
RightLeg  -5.36698 -11.0603 1.99254
RightFoot  6.83854 -0.172225 1.37094
RightToes  -3.10678e-008 1.75238e-005 3.56266e-009
Spine  18.4105 -3.17499 -14.1724
Spine1  -7.84179 -6.91615 17.5425
HEad  -7.6924 -31.9947 10.5246
LeftShoulder1  2.07228 -3.21148 -24.6593
LeftArm  -2.71058 -12.0582 -55.9393
LeftForeArm  47.0154 -73.6088 -34.882
LeftHand  -0.588048 -4.05703 7.49694
RightShoulder  2.10304 3.23633 25.1572
RightArm  0.373689 -21.5808 42.5872
RightForeArm  58.627 78.0184 56.1618
RightHand  -0.365183 8.40868 -3.44478
LeftUpLeg  -3.07971 1.11368 1.68906
LeftLeg  -4.59681 31.8893 -3.68857
LeftFoot  2.72387 0.042361 -0.476538
LeftToes  4.7643e-008 1.47522e-008 1.32869e-009
301
root  -1.67957 41.0008 0.822021 -177.768 -75.5964 -177.962
RightUpLeg  -4.68078 0.44746 -0.886283
RightLeg  -5.16462 -10.7289 1.79796
RightFoot  6.27644 -0.202338 1.58214
RightToes  -3.10678e-008 1.75238e-005 3.56266e-009
Spine  16.7763 -4.11791 -13.9324
Spine1  -7.61733 -7.65538 17.4006
HEad  -7.01616 -31.6193 10.3912
LeftShoulder1  2.00937 -3.06792 -24.3581
LeftArm  -2.15975 -11.9809 -56.6668
LeftForeArm  46.8345 -73.388 -34.2299
LeftHand  -0.577319 -4.18131 7.27713
RightShoulder  2.01293 2.96533 25.0594
RightArm  0.673145 -22.4828 42.6877
RightForeArm  58.7967 78.0338 56.2382
RightHand  -0.32983 8.09303 -3.20919
LeftUpLeg  -1.85001 1.07238 1.51276
LeftLeg  -5.03093 32.0599 -3.82665
LeftFoot  2.39905 0.0368081 -0.427746
LeftToes  4.7643e-008 1.47522e-008 1.32869e-009
302
root  -2.00386 41.0108 0.833563 -179.706 -75.3804 -176.669
RightUpLeg  -3.23515 0.656369 -0.537829
RightLeg  -5.59562 -10.7304 1.68312
RightFoot  6.09614 -0.189895 1.51057
RightToes  -3.10678e-008 1.75238e-005 3.56266e-009
Spine  16.0275 -4.61334 -13.5629
Spine1  -8.31103 -7.95027 17.9011
HEad  -6.57767 -31.3606 9.94996
LeftShoulder1  2.17333 -3.51657 -24.7681
LeftArm  -2.3265 -11.016 -56.4971
LeftForeArm  46.9605 -73.3465 -34.0742
LeftHand  -0.571167 -4.20382 7.1893
RightShoulder  1.89004 2.70465 24.3644
RightArm  1.08676 -23.3885 42.83
RightForeArm  59.4718 78.1274 56.9508
RightHand  -0.342899 8.05288 -3.329
LeftUpLeg  -0.633359 1.34004 1.70126
LeftLeg  -4.85267 31.9554 -3.62182
LeftFoot  1.88493 0.0710581 -0.710853
LeftToes  4.7643e-008 1.47522e-008 1.32869e-009
303
root  -2.26455 41.0114 0.851333 179.778 -74.6101 -176.449
RightUpLeg  -2.66602 0.640242 -0.481844
RightLeg  -5.39846 -9.9873 1.5295
RightFoot  5.73523 -0.203746 1.61857
RightToes  -3.10678e-008 1.75238e-005 3.56266e-009
Spine  14.5462 -5.02096 -13.2059
Spine1  -7.85368 -8.1966 17.6264
HEad  -7.37359 -30.5843 10.4465
LeftShoulder1  2.05638 -3.21074 -24.4202
LeftArm  -2.21746 -10.7302 -56.8122
LeftForeArm  46.6154 -73.1561 -33.582
LeftHand  -0.588225 -3.99798 7.54371
RightShoulder  1.90877 2.72612 24.5672
RightArm  1.27235 -22.9609 42.7495
RightForeArm  58.4431 77.9931 55.9798
RightHand  -0.354387 8.13701 -3.40984
LeftUpLeg  0.349177 1.29832 1.5863
LeftLeg  -5.25124 32.7545 -3.68656
LeftFoot  1.62634 0.0931161 -0.906202
LeftToes  4.7643e-008 1.47522e-008 1.32869e-009
304
root  -2.47035 41.0094 0.880668 179.208 -73.9887 -176.163
RightUpLeg  -2.1084 0.626664 -0.441222
RightLeg  -5.3471 -9.28953 1.41429
RightFoot  5.46022 -0.227857 1.79555
RightToes  -3.10678e-008 1.75238e-005 3.56266e-009
Spine  13.4892 -5.20413 -12.7991
Spine1  -7.72012 -8.23663 17.5378
HEad  -8.40711 -30.5064 10.9726
LeftShoulder1  2.1163 -3.3997 -24.4506
LeftArm  -2.48379 -10.1109 -56.466
LeftForeArm  46.788 -73.2502 -33.8223
LeftHand  -0.560344 -4.12353 7.11363
RightShoulder  1.90218 2.69115 24.6367
RightArm  1.34253 -22.6185 42.7855
RightForeArm  57.8813 77.8996 55.2421
RightHand  -0.392973 8.30494 -3.70519
LeftUpLeg  1.08233 1.28046 1.49358
LeftLeg  -5.35334 33.4308 -3.63057
LeftFoot  1.32878 0.112643 -1.08705
LeftToes  4.7643e-008 1.47522e-008 1.32869e-009
305
root  -2.66333 41.0102 0.894325 178.859 -73.3354 -176.112
RightUpLeg  -1.64934 0.65734 -0.398001
RightLeg  -5.12192 -8.60263 1.17754
RightFoot  5.1545 -0.249332 1.96336
RightToes  -3.10678e-008 1.75238e-005 3.56266e-009
Spine  12.4245 -5.17673 -12.4345
Spine1  -7.36082 -8.12726 17.5122
HEad  -9.2592 -30.5055 11.5571
LeftShoulder1  2.16168 -3.52655 -24.5487
LeftArm  -2.23809 -10.0044 -56.172
LeftForeArm  46.4597 -73.2433 -33.8804
LeftHand  -0.547274 -3.69429 7.25296
RightShoulder  1.88002 2.64822 24.4816
RightArm  1.21361 -22.4244 42.799
RightForeArm  57.8799 77.9283 55.5869
RightHand  -0.413643 7.95411 -3.96025
LeftUpLeg  1.8224 1.4143 1.46949
LeftLeg  -5.44515 33.9196 -3.76416
LeftFoot  0.976249 0.123959 -1.20378
LeftToes  4.7643e-008 1.47522e-008 1.32869e-009
306
root  -2.83127 41.0041 0.905872 178.371 -72.919 -175.909
RightUpLeg  -1.17185 0.635102 -0.365914
RightLeg  -4.96551 -8.17261 1.07198
RightFoot  4.81405 -0.275698 2.17371
RightToes  -3.10678e-008 1.75238e-005 3.56266e-009
Spine  11.2137 -5.34417 -12.1622
Spine1  -6.64804 -8.27999 17.5346
HEad  -10.1981 -30.7478 11.9805
LeftShoulder1  2.10477 -3.37093 -24.4103
LeftArm  -2.2096 -10.1263 -56.3347
LeftForeArm  46.2332 -73.1136 -33.5485
LeftHand  -0.538508 -3.80798 7.05988
RightShoulder  2.05207 3.15518 24.7505
RightArm  0.6781 -22.2154 42.3426
RightForeArm  56.2125 77.6617 53.6751
RightHand  -0.302764 8.12356 -2.971
LeftUpLeg  2.3513 1.56877 1.49184
LeftLeg  -5.17389 34.1719 -3.66524
LeftFoot  0.547246 0.14255 -1.40208
LeftToes  4.7643e-008 1.47522e-008 1.32869e-009
